<?xml version="1.0" standalone="no"?>
<!DOCTYPE svg PUBLIC "-//W3C//DTD SVG 20010904//EN"
 "http://www.w3.org/TR/2001/REC-SVG-20010904/DTD/svg10.dtd">
<svg version="1.0" xmlns="http://www.w3.org/2000/svg"
 width="800.000000pt" height="800.000000pt" viewBox="0 0 800.000000 800.000000"
 preserveAspectRatio="xMidYMid meet">
<metadata>
Created by potrace 1.14, written by Peter Selinger 2001-2017
</metadata>
<g transform="translate(0.000000,800.000000) scale(0.100000,-0.100000)"
fill="#000000" stroke="none">
<path d="M85 7430 c-11 -4 -33 -22 -50 -40 l-30 -31 0 -407 c0 -391 1 -408 20
-434 11 -15 25 -28 32 -28 6 0 13 -5 15 -11 3 -10 98 -22 158 -20 15 0 305 0
325 0 6 0 57 0 115 0 58 0 112 0 120 0 13 0 164 0 235 0 11 1 49 1 85 0 36 0
72 0 80 0 8 1 44 1 80 0 36 0 72 0 80 0 12 1 85 0 160 0 8 0 83 0 165 0 83 0
155 0 160 0 6 0 57 0 115 0 58 0 112 0 120 0 13 0 164 0 235 0 11 1 49 1 85 0
36 0 71 0 78 0 40 1 154 0 165 0 6 0 77 0 157 0 80 0 152 0 160 0 8 0 80 0
160 0 80 0 152 0 160 0 8 0 80 0 160 0 80 0 152 0 160 0 8 0 116 0 240 0 124
0 232 0 240 0 8 0 62 0 120 0 58 0 112 0 120 0 13 0 164 0 235 0 17 1 99 0
165 0 8 0 83 0 165 0 83 0 155 0 160 0 6 0 57 0 115 0 58 0 112 0 120 0 13 0
164 0 235 0 17 1 99 0 165 0 8 0 83 0 165 0 83 0 155 0 160 0 6 0 57 0 115 0
58 0 112 0 120 0 8 0 62 0 120 0 58 0 112 0 120 0 8 0 80 0 160 0 80 0 152 0
160 0 8 0 80 0 160 0 80 0 152 0 160 0 8 0 80 0 160 0 80 0 152 0 160 0 22 0
292 0 315 0 137 2 152 4 186 23 68 38 69 43 69 468 0 389 -2 412 -40 450 -42
41 104 40 -3963 39 -2141 0 -3901 -4 -3912 -9z"/>
<path d="M196 5270 c-11 -4 -13 -237 -12 -1290 l1 -1285 938 0 c516 0 940 3
943 6 3 5 8 426 5 467 -1 9 -137 12 -646 12 l-645 0 -2 1047 -3 1047 -283 0
c-155 1 -289 -1 -296 -4z"/>
<path d="M2194 5272 l-31 -3 14 -42 c7 -23 16 -49 20 -57 3 -8 7 -19 8 -25 3
-14 34 -107 42 -125 3 -8 7 -19 8 -25 0 -5 4 -17 8 -25 3 -8 33 -98 66 -200
33 -102 101 -309 151 -460 50 -151 93 -282 95 -290 2 -8 45 -139 95 -290 51
-151 93 -279 94 -285 1 -5 7 -23 13 -40 6 -16 48 -142 93 -280 44 -137 85
-259 89 -270 5 -11 16 -47 26 -80 9 -33 21 -65 26 -70 5 -7 116 -10 321 -9
172 1 316 2 319 3 3 0 6 7 6 14 1 13 128 400 143 432 5 11 18 49 29 85 34 110
389 1162 395 1167 2 3 2 12 -1 21 -5 15 -4 15 9 2 11 -11 129 -350 144 -412 1
-5 3 -10 4 -13 1 -3 3 -8 4 -12 1 -5 26 -82 56 -173 29 -91 55 -169 56 -175 1
-5 20 -64 42 -130 22 -66 88 -268 147 -450 58 -181 110 -337 114 -345 7 -13
54 -15 324 -15 l316 -1 10 26 c15 40 50 144 221 670 89 272 177 540 195 595
80 240 188 570 190 580 1 5 5 17 8 25 3 8 36 107 72 220 37 113 78 237 92 277
13 40 26 78 27 85 3 13 11 36 26 74 7 18 5 23 -13 26 -18 3 -523 2 -549 -1 -5
-1 -147 -415 -162 -476 -2 -5 -6 -17 -9 -25 -8 -22 -147 -442 -151 -460 -8
-28 -127 -395 -136 -415 -5 -11 -16 -45 -25 -75 -9 -30 -19 -62 -22 -70 -3 -8
-7 -19 -9 -25 -1 -5 -22 -71 -47 -145 l-44 -135 -13 40 c-8 22 -14 42 -15 45
-1 11 -97 307 -108 335 -6 17 -12 32 -12 35 -1 3 -14 46 -30 95 -16 50 -30 92
-30 95 -1 3 -14 43 -29 90 -16 47 -29 90 -30 95 -1 6 -4 15 -8 20 -4 8 -33 99
-44 138 -1 4 -3 9 -4 12 -1 3 -3 8 -4 13 -2 7 -113 350 -189 582 -23 69 -41
127 -42 130 -5 33 -32 100 -40 101 -45 4 -496 3 -519 -1 -28 -5 -31 -12 -163
-405 -74 -220 -135 -404 -136 -410 -2 -5 -21 -62 -42 -125 -22 -63 -40 -117
-40 -120 0 -3 -12 -36 -25 -75 -13 -38 -25 -72 -25 -75 0 -3 -18 -57 -40 -120
-22 -63 -40 -117 -40 -120 -2 -12 -17 -57 -25 -75 -5 -11 -27 -77 -50 -148
-23 -70 -46 -125 -51 -121 -5 3 -9 11 -9 19 0 8 -18 67 -39 132 -59 179 -132
406 -136 423 -2 8 -17 56 -33 105 -46 138 -115 354 -167 520 -26 83 -51 159
-55 170 -14 34 -94 289 -97 309 -2 11 -8 25 -14 32 -5 6 -9 16 -8 20 4 18 -14
64 -25 65 -33 3 -556 4 -582 1z"/>
<path d="M7149 5270 c-17 -3 -24 -11 -22 -25 1 -11 4 -60 7 -110 3 -49 8 -117
11 -150 6 -77 14 -205 30 -455 3 -47 7 -105 10 -130 4 -46 15 -210 20 -310 1
-30 5 -89 9 -130 5 -69 12 -170 21 -308 2 -29 5 -56 8 -58 3 -3 99 -5 214 -5
260 0 243 0 242 9 -1 4 -1 9 0 12 1 3 4 52 6 110 3 58 8 125 10 150 3 25 7 86
10 135 3 50 8 115 10 145 5 66 14 197 20 300 2 41 7 107 10 145 5 71 11 158
20 300 3 44 8 109 10 145 3 36 7 103 10 150 l4 85 -317 0 c-175 0 -329 -2
-343 -5z"/>
<path d="M7404 3321 c-2 -2 -14 -5 -27 -6 -41 -5 -119 -46 -162 -86 -104 -98
-128 -248 -60 -382 58 -117 159 -177 305 -183 146 -5 267 67 329 196 22 46 26
69 26 140 0 95 -19 147 -77 212 -31 33 -118 95 -118 83 0 -3 -10 0 -22 6 -13
7 -34 14 -48 16 -36 6 -141 9 -146 4z"/>
<path d="M95 1522 c-33 -11 -63 -37 -80 -68 -13 -24 -15 -88 -15 -412 0 -357
1 -385 19 -420 12 -23 33 -44 55 -55 35 -16 258 -17 3925 -17 2731 0 3897 3
3917 11 16 6 40 24 54 42 l25 31 2 398 c3 397 3 399 -20 433 -12 18 -37 41
-55 49 -29 14 -410 16 -3920 15 -2138 -1 -3896 -4 -3907 -7z"/>
</g>
</svg>
