<svg xmlns="http://www.w3.org/2000/svg" xmlns:xlink="http://www.w3.org/1999/xlink">

  <symbol id="plyr-airplay" viewBox="0 0 24 24">
    <path fill="none" d="M0 0h24v24H0z"/><path d="M12.4 13.533l5 6.667a.5.5 0 0 1-.4.8H7a.5.5 0 0 1-.4-.8l5-6.667a.5.5 0 0 1 .8 0zM12 16.33L10 19h4l-2-2.67zM18 19v-2h2V5H4v12h2v2H2.992A.994.994 0 0 1 2 18V4c0-.552.455-1 .992-1h18.016c.548 0 .992.445.992 1v14c0 .552-.455 1-.992 1H18z"/>
  </symbol>
  <symbol id="plyr-captions-off" viewBox="0 0 24 24">
    <path d="M21 3c.552 0 1 .448 1 1v16c0 .552-.448 1-1 1H3c-.552 0-1-.448-1-1V4c0-.552.448-1 1-1h18zm-1 2H4v14h16V5zM9 8c1.105 0 2.105.448 2.829 1.173l-1.414 1.414C10.053 10.224 9.553 10 9 10c-1.105 0-2 .895-2 2s.895 2 2 2c.553 0 1.053-.224 1.414-.586l1.414 1.414C11.104 15.552 10.104 16 9 16c-2.208 0-4-1.792-4-4s1.792-4 4-4zm7 0c1.105 0 2.105.448 2.829 1.173l-1.414 1.414C17.053 10.224 16.553 10 16 10c-1.105 0-2 .895-2 2s.895 2 2 2c.552 0 1.052-.224 1.414-.586l1.414 1.414C18.104 15.552 17.104 16 16 16c-2.208 0-4-1.792-4-4s1.792-4 4-4z"/>
  </symbol>
  <symbol id="plyr-captions-on" viewBox="0 0 24 24">
    <path d="M21 3c.552 0 1 .448 1 1v16c0 .552-.448 1-1 1H3c-.552 0-1-.448-1-1V4c0-.552.448-1 1-1h18zM9 8c-2.208 0-4 1.792-4 4s1.792 4 4 4c1.1 0 2.1-.45 2.828-1.172l-1.414-1.414C10.053 13.776 9.553 14 9 14c-1.105 0-2-.895-2-2s.895-2 2-2c.55 0 1.048.22 1.415.587l1.414-1.414C11.105 8.448 10.105 8 9 8zm7 0c-2.208 0-4 1.792-4 4s1.792 4 4 4c1.104 0 2.104-.448 2.828-1.172l-1.414-1.414c-.362.362-.862.586-1.414.586-1.105 0-2-.895-2-2s.895-2 2-2c.553 0 1.053.224 1.415.587l1.414-1.414C18.105 8.448 17.105 8 16 8z"/>
  </symbol>
  <symbol id="plyr-download" viewBox="0 0 24 24">
    <path fill="none" d="M0 0h24v24H0z"/><path d="M13 12h3l-4 4-4-4h3V8h2v4zm2-8H5v16h14V8h-4V4zM3 2.992C3 2.444 3.447 2 3.999 2H16l5 5v13.993A1 1 0 0 1 20.007 22H3.993A1 1 0 0 1 3 21.008V2.992z"/>
  </symbol>
  <symbol id="plyr-enter-fullscreen" viewBox="0 0 24 24">
    <path fill="none" d="M0 0h24v24H0z"/><path d="M20 3h2v6h-2V5h-4V3h4zM4 3h4v2H4v4H2V3h2zm16 16v-4h2v6h-6v-2h4zM4 19h4v2H2v-6h2v4z"/>
  </symbol>
  <symbol id="plyr-exit-fullscreen" viewBox="0 0 24 24">
    <path fill="none" d="M0 0h24v24H0z"/><path d="M18 7h4v2h-6V3h2v4zM8 9H2V7h4V3h2v6zm10 8v4h-2v-6h6v2h-4zM8 15v6H6v-4H2v-2h6z"/>
  </symbol>
  <symbol id="plyr-fast-forward" viewBox="0 0 24 24">
    <path fill="none" d="M0 0h24v24H0z"/><path d="M12 13.333l-9.223 6.149A.5.5 0 0 1 2 19.066V4.934a.5.5 0 0 1 .777-.416L12 10.667V4.934a.5.5 0 0 1 .777-.416l10.599 7.066a.5.5 0 0 1 0 .832l-10.599 7.066a.5.5 0 0 1-.777-.416v-5.733zM10.394 12L4 7.737v8.526L10.394 12zM14 7.737v8.526L20.394 12 14 7.737z"/>
  </symbol>
  <symbol id="plyr-logo-vimeo" viewBox="0 0 24 24">
    <path fill="none" d="M0 0H24V24H0z"/><path d="M17.993 3.004c2.433 0 4.005 1.512 4.005 4.496 0 1.72-.998 3.94-1.832 5.235-2.789 4.333-6.233 8.74-9.643 8.74-3.706 0-4.67-6.831-5.092-8.432-.422-1.601-.533-2.21-1.17-3.233-.317.22-.76.529-1.33.93-.224.157-.533.105-.693-.117L.925 8.807C.789 8.62.8 8.363.952 8.187 3.779 4.915 6.128 3.278 8 3.278c2.392 0 3.124 2.816 3.324 4.223.3 2.117.69 4.738 1.244 5.872.557-.792 2.18-2.888 1.967-3.99-.094-.486-1.317.183-1.887.078-.425-.08-.806-.402-.806-1.026 0-1.31 1.852-5.43 6.151-5.43zm.007 2c-2.195 0-3.251 1.533-3.653 2.208 1.25.046 1.97.818 2.133 1.803.389 2.33-1.916 4.92-2.339 5.565-.396.603-3.061 3.328-4.25-3.36-.112-.629-.367-2.163-.665-4.186-.17-1.151-.873-1.763-1.23-1.763-.842 0-1.92.65-3.855 2.515 1.905-.115 2.545 2.276 2.916 3.633.816 2.984 1.571 8.056 3.62 8.056 1.727 0 4.439-2.646 7.37-7.04.209-.311 1.966-3.024 1.966-5.036 0-2.395-1.469-2.395-2.013-2.395z"/>
  </symbol>
  <symbol id="plyr-logo-youtube" viewBox="0 0 24 24">
   <path fill="none" d="M0 0h24v24H0z"/><path d="M19.606 6.995c-.076-.298-.292-.523-.539-.592C18.63 6.28 16.5 6 12 6s-6.628.28-7.069.403c-.244.068-.46.293-.537.592C4.285 7.419 4 9.196 4 12s.285 4.58.394 5.006c.076.297.292.522.538.59C5.372 17.72 7.5 18 12 18s6.629-.28 7.069-.403c.244-.068.46-.293.537-.592C19.715 16.581 20 14.8 20 12s-.285-4.58-.394-5.005zm1.937-.497C22 8.28 22 12 22 12s0 3.72-.457 5.502c-.254.985-.997 1.76-1.938 2.022C17.896 20 12 20 12 20s-5.893 0-7.605-.476c-.945-.266-1.687-1.04-1.938-2.022C2 15.72 2 12 2 12s0-3.72.457-5.502c.254-.985.997-1.76 1.938-2.022C6.107 4 12 4 12 4s5.896 0 7.605.476c.945.266 1.687 1.04 1.938 2.022zM10 15.5v-7l6 3.5-6 3.5z"/>
  </symbol>
  <symbol id="plyr-muted" viewBox="0 0 24 24">
    <path fill="none" d="M0 0h24v24H0z"/><path d="M10 7.22L6.603 10H3v4h3.603L10 16.78V7.22zM5.889 16H2a1 1 0 0 1-1-1V9a1 1 0 0 1 1-1h3.889l5.294-4.332a.5.5 0 0 1 .817.387v15.89a.5.5 0 0 1-.817.387L5.89 16zm14.525-4l3.536 3.536-1.414 1.414L19 13.414l-3.536 3.536-1.414-1.414L17.586 12 14.05 8.464l1.414-1.414L19 10.586l3.536-3.536 1.414 1.414L20.414 12z"/>
  </symbol>
  <symbol id="plyr-pause" viewBox="0 0 24 24">
    <path fill="none" d="M0 0h24v24H0z"/><path d="M6 5h2v14H6V5zm10 0h2v14h-2V5z"/>
  </symbol>
  <symbol id="plyr-pip" viewBox="0 0 24 24">
    <path fill="none" d="M0 0h24v24H0z"/><path d="M21 3a1 1 0 0 1 1 1v7h-2V5H4v14h6v2H3a1 1 0 0 1-1-1V4a1 1 0 0 1 1-1h18zm0 10a1 1 0 0 1 1 1v6a1 1 0 0 1-1 1h-8a1 1 0 0 1-1-1v-6a1 1 0 0 1 1-1h8z"/>
  </symbol>
  <symbol id="plyr-play" viewBox="0 0 24 24">
    <path fill="none" d="M0 0h24v24H0z"/><path d="M19.376 12.416L8.777 19.482A.5.5 0 0 1 8 19.066V4.934a.5.5 0 0 1 .777-.416l10.599 7.066a.5.5 0 0 1 0 .832z"/>
  </symbol>
  <symbol id="plyr-restart" viewBox="0 0 24 24">
   <path fill="none" d="M0 0h24v24H0z"/><path d="M5.463 4.433A9.961 9.961 0 0 1 12 2c5.523 0 10 4.477 10 10 0 2.136-.67 4.116-1.81 5.74L17 12h3A8 8 0 0 0 6.46 6.228l-.997-1.795zm13.074 15.134A9.961 9.961 0 0 1 12 22C6.477 22 2 17.523 2 12c0-2.136.67-4.116 1.81-5.74L7 12H4a8 8 0 0 0 13.54 5.772l.997 1.795z"/>
  </symbol>
  <symbol id="plyr-rewind" viewBox="0 0 24 24">
    <path fill="none" d="M0 0h24v24H0z"/><path d="M12 10.667l9.223-6.149a.5.5 0 0 1 .777.416v14.132a.5.5 0 0 1-.777.416L12 13.333v5.733a.5.5 0 0 1-.777.416L.624 12.416a.5.5 0 0 1 0-.832l10.599-7.066a.5.5 0 0 1 .777.416v5.733zm-2 5.596V7.737L3.606 12 10 16.263zm10 0V7.737L13.606 12 20 16.263z"/>
  </symbol>
  <symbol id="plyr-settings" viewBox="0 0 24 24">
    <path fill="none" d="M0 0h24v24H0z"/><path d="M3.34 17a10.018 10.018 0 0 1-.978-2.326 3 3 0 0 0 .002-5.347A9.99 9.99 0 0 1 4.865 4.99a3 3 0 0 0 4.631-2.674 9.99 9.99 0 0 1 5.007.002 3 3 0 0 0 4.632 2.672c.579.59 1.093 1.261 1.525 2.01.433.749.757 1.53.978 2.326a3 3 0 0 0-.002 5.347 9.99 9.99 0 0 1-2.501 4.337 3 3 0 0 0-4.631 2.674 9.99 9.99 0 0 1-5.007-.002 3 3 0 0 0-4.632-2.672A10.018 10.018 0 0 1 3.34 17zm5.66.196a4.993 4.993 0 0 1 2.25 2.77c.499.047 1 .048 1.499.001A4.993 4.993 0 0 1 15 17.197a4.993 4.993 0 0 1 3.525-.565c.29-.408.54-.843.748-1.298A4.993 4.993 0 0 1 18 12c0-1.26.47-2.437 1.273-3.334a8.126 8.126 0 0 0-.75-1.298A4.993 4.993 0 0 1 15 6.804a4.993 4.993 0 0 1-2.25-2.77c-.499-.047-1-.048-1.499-.001A4.993 4.993 0 0 1 9 6.803a4.993 4.993 0 0 1-3.525.565 7.99 7.99 0 0 0-.748 1.298A4.993 4.993 0 0 1 6 12c0 1.26-.47 2.437-1.273 3.334a8.126 8.126 0 0 0 .75 1.298A4.993 4.993 0 0 1 9 17.196zM12 15a3 3 0 1 1 0-6 3 3 0 0 1 0 6zm0-2a1 1 0 1 0 0-2 1 1 0 0 0 0 2z"/>
  </symbol>
  <symbol id="plyr-volume" viewBox="0 0 24 24">
  <path d="M10 7.22L6.603 10H3v4h3.603L10 16.78V7.22zM5.889 16H2a1 1 0 0 1-1-1V9a1 1 0 0 1 1-1h3.889l5.294-4.332a.5.5 0 0 1 .817.387v15.89a.5.5 0 0 1-.817.387L5.89 16zm13.517 4.134l-1.416-1.416A8.978 8.978 0 0 0 21 12a8.982 8.982 0 0 0-3.304-6.968l1.42-1.42A10.976 10.976 0 0 1 23 12c0 3.223-1.386 6.122-3.594 8.134zm-3.543-3.543l-1.422-1.422A3.993 3.993 0 0 0 16 12c0-1.43-.75-2.685-1.88-3.392l1.439-1.439A5.991 5.991 0 0 1 18 12c0 1.842-.83 3.49-2.137 4.591z"/>
  </symbol>

</svg>